<svg xmlns="http://www.w3.org/2000/svg" x="0px" y="0px" viewBox="0 0 864 864" enable-background="new 0 0 864 864"><style>.ls0{fill:#000}.fs0{fill:#231f20}</style><g transform="translate(-13.4187004754 -13.4187004754) scale(1.03106)" class="ls0"><g><path d="M358,166.8v53.8v10.4v134v69.4v96.6c-9.7-25.3-19-50.8-27.9-76.4c-6.5-18.8-12.8-37.6-18.8-56.6 c-16.2,11.7-32.2,23.6-48.1,35.7c-10.5,8-21,16.1-31.4,24.2c-10.5-18.5-20-37.7-28.3-57.4c-15.9-37.6-27.4-76.5-34.6-116.3 c-3.4-19.1-5.9-38.5-7.3-58.1c-19.2,2.8-38.7,4.7-58.2,5.8c1.4,19.6,3.8,39,7.1,58.2c7.8,45.6,20.9,90.2,39.1,133.2 c10.5,24.8,22.5,48.7,36.1,71.7c9.7,16.4,20.1,32.4,31.3,47.8c15-12.5,30.2-24.8,45.6-36.8c6.6-5.2,13.3-10.4,20-15.6 c8.7,24.5,17.8,48.9,27.2,73.1c15.1,38.8,31.2,77.3,48.3,115.3c0.9,2.1,1.9,4.2,2.8,6.3c1.7,1.2,3.5,2.4,5.2,3.6 c8.3,5.7,16.7,11.2,25.2,16.5c7.7,4.8,15.6,9.4,23.5,13.8v-24.8v-27.7v-2.9v-12.8V395.1v-13.9v-36.2v-17.9v-73.4v-50V192v-55.5 c-15.4,9.2-31.2,17.8-47.3,25.8C364.4,163.8,361.2,165.3,358,166.8z"/></g><g><path d="M681.8,284.2c-6.1,34-15.4,67.2-27.9,99.6c-53.7-4.9-107.5-8.1-161.3-9.5V231.1v-64.2c-3.2-1.5-6.3-3-9.5-4.6 c-16.1-8-31.9-16.6-47.3-25.8V192v11.7v169.7v11.4v45.4v220.7v12.8V719c16.7-9.3,33-19.4,48.8-30.3c2.7-1.8,5.4-3.7,8-5.6v-73.9 V446.4v-15.3c45.6,1.2,91.2,3.8,136.7,7.5c-16.7,32.5-36.6,63.1-59.4,91.6l40.1,43.5c32.6-39.5,59.9-82.6,81.6-129 c3.3-7,6.5-14.2,9.5-21.3c4.7-11,9-22.1,12.9-33.3c11.6-32.6,20.3-65.9,26.1-99.9c3.3-19.2,5.7-38.6,7.1-58.2 c-19.6-1.1-39-3-58.2-5.8C687.6,245.7,685.2,265.1,681.8,284.2z"/></g></g><g><path class="fs0" d="M432,36c-105.8,0-205.2,41.2-280,116S36,326.2,36,432s41.2,205.2,116,280s174.2,116,280,116s205.2-41.2,280-116	s116-174.2,116-280s-41.2-205.2-116-280S537.8,36,432,36z M669.1,669.1c-63.3,63.3-147.5,98.2-237.1,98.2s-173.8-34.9-237.1-98.2	S96.7,521.6,96.7,432s34.9-173.8,98.2-237.1S342.4,96.7,432,96.7s173.8,34.9,237.1,98.2s98.2,147.5,98.2,237.1	S732.4,605.8,669.1,669.1z" fill="white"/></g></svg>